<mxfile host="Electron" agent="Mozilla/5.0 (Windows NT 10.0; Win64; x64) AppleWebKit/537.36 (KHTML, like Gecko) draw.io/28.0.6 Chrome/138.0.7204.100 Electron/37.2.3 Safari/537.36" version="28.0.6">
  <diagram id="XFw0ANKCquUMDcCiUBoY" name="Page-1">
    <mxGraphModel dx="995" dy="726" grid="1" gridSize="10" guides="1" tooltips="1" connect="1" arrows="1" fold="1" page="1" pageScale="1" pageWidth="1100" pageHeight="850" math="0" shadow="0">
      <root>
        <mxCell id="0" />
        <mxCell id="1" parent="0" />
        <mxCell id="CqQkL1AC1wuuM3LWnO_Q-1" value="" style="rounded=0;whiteSpace=wrap;html=1;" parent="1" vertex="1">
          <mxGeometry x="160.5" y="200" width="120" height="360" as="geometry" />
        </mxCell>
        <mxCell id="axnZPwphHVGIQs4i_vbI-14" value="&lt;font style=&quot;font-size: 24px&quot;&gt;Arduino Headers&lt;/font&gt;" style="text;html=1;strokeColor=none;fillColor=none;align=center;verticalAlign=middle;whiteSpace=wrap;rounded=0;rotation=-90;" parent="1" vertex="1">
          <mxGeometry x="128" y="370" width="185" height="20" as="geometry" />
        </mxCell>
        <mxCell id="CqQkL1AC1wuuM3LWnO_Q-11" value="Video" style="text;html=1;strokeColor=none;fillColor=none;align=center;verticalAlign=middle;whiteSpace=wrap;rounded=0;" parent="1" vertex="1">
          <mxGeometry x="360.5" y="380" width="40" height="20" as="geometry" />
        </mxCell>
        <mxCell id="CqQkL1AC1wuuM3LWnO_Q-12" value="Sync" style="text;html=1;strokeColor=none;fillColor=none;align=center;verticalAlign=middle;whiteSpace=wrap;rounded=0;" parent="1" vertex="1">
          <mxGeometry x="360.5" y="300" width="40" height="20" as="geometry" />
        </mxCell>
        <mxCell id="CqQkL1AC1wuuM3LWnO_Q-22" value="9" style="text;html=1;strokeColor=none;fillColor=none;align=center;verticalAlign=middle;whiteSpace=wrap;rounded=0;" parent="1" vertex="1">
          <mxGeometry x="280.5" y="300" width="40" height="20" as="geometry" />
        </mxCell>
        <mxCell id="gEyAKgTmWfJZtig9_PZQ-1" value="" style="pointerEvents=1;verticalLabelPosition=bottom;shadow=0;dashed=0;align=center;html=1;verticalAlign=top;shape=mxgraph.electrical.resistors.resistor_2;" parent="1" vertex="1">
          <mxGeometry x="400.5" y="310" width="100" height="20" as="geometry" />
        </mxCell>
        <mxCell id="gEyAKgTmWfJZtig9_PZQ-7" style="edgeStyle=orthogonalEdgeStyle;rounded=0;orthogonalLoop=1;jettySize=auto;html=1;exitX=1;exitY=0.5;exitDx=0;exitDy=0;exitPerimeter=0;endArrow=none;endFill=0;" parent="1" source="gEyAKgTmWfJZtig9_PZQ-2" edge="1">
          <mxGeometry relative="1" as="geometry">
            <mxPoint x="560.5" y="320" as="targetPoint" />
          </mxGeometry>
        </mxCell>
        <mxCell id="gEyAKgTmWfJZtig9_PZQ-2" value="" style="pointerEvents=1;verticalLabelPosition=bottom;shadow=0;dashed=0;align=center;html=1;verticalAlign=top;shape=mxgraph.electrical.resistors.resistor_2;" parent="1" vertex="1">
          <mxGeometry x="400.5" y="390" width="100" height="20" as="geometry" />
        </mxCell>
        <mxCell id="gEyAKgTmWfJZtig9_PZQ-3" value="" style="pointerEvents=1;verticalLabelPosition=bottom;shadow=0;dashed=0;align=center;html=1;verticalAlign=top;shape=mxgraph.electrical.miscellaneous.shielded_jack_plug" parent="1" vertex="1">
          <mxGeometry x="695.5" y="294" width="50" height="100" as="geometry" />
        </mxCell>
        <mxCell id="gEyAKgTmWfJZtig9_PZQ-4" style="edgeStyle=orthogonalEdgeStyle;rounded=0;orthogonalLoop=1;jettySize=auto;html=1;exitX=1;exitY=0.25;exitDx=0;exitDy=0;entryX=0;entryY=0.5;entryDx=0;entryDy=0;entryPerimeter=0;endArrow=none;endFill=0;" parent="1" source="CqQkL1AC1wuuM3LWnO_Q-1" target="gEyAKgTmWfJZtig9_PZQ-1" edge="1">
          <mxGeometry relative="1" as="geometry">
            <Array as="points">
              <mxPoint x="280.5" y="320" />
            </Array>
          </mxGeometry>
        </mxCell>
        <mxCell id="gEyAKgTmWfJZtig9_PZQ-5" style="edgeStyle=orthogonalEdgeStyle;rounded=0;orthogonalLoop=1;jettySize=auto;html=1;exitX=1;exitY=0.75;exitDx=0;exitDy=0;entryX=0;entryY=0.5;entryDx=0;entryDy=0;entryPerimeter=0;endArrow=none;endFill=0;" parent="1" source="CqQkL1AC1wuuM3LWnO_Q-1" target="gEyAKgTmWfJZtig9_PZQ-2" edge="1">
          <mxGeometry relative="1" as="geometry">
            <Array as="points">
              <mxPoint x="280.5" y="400" />
            </Array>
          </mxGeometry>
        </mxCell>
        <mxCell id="gEyAKgTmWfJZtig9_PZQ-6" style="edgeStyle=orthogonalEdgeStyle;rounded=0;orthogonalLoop=1;jettySize=auto;html=1;exitX=1;exitY=0.5;exitDx=0;exitDy=0;exitPerimeter=0;entryX=0.22;entryY=0.26;entryDx=0;entryDy=0;entryPerimeter=0;endArrow=none;endFill=0;" parent="1" source="gEyAKgTmWfJZtig9_PZQ-1" target="gEyAKgTmWfJZtig9_PZQ-3" edge="1">
          <mxGeometry relative="1" as="geometry" />
        </mxCell>
        <mxCell id="gEyAKgTmWfJZtig9_PZQ-8" style="edgeStyle=orthogonalEdgeStyle;rounded=0;orthogonalLoop=1;jettySize=auto;html=1;exitX=1;exitY=0.75;exitDx=0;exitDy=0;entryX=0.52;entryY=0.66;entryDx=0;entryDy=0;entryPerimeter=0;endArrow=none;endFill=0;" parent="1" source="CqQkL1AC1wuuM3LWnO_Q-1" target="gEyAKgTmWfJZtig9_PZQ-3" edge="1">
          <mxGeometry relative="1" as="geometry">
            <Array as="points">
              <mxPoint x="600.5" y="470" />
              <mxPoint x="600.5" y="360" />
            </Array>
          </mxGeometry>
        </mxCell>
        <mxCell id="gEyAKgTmWfJZtig9_PZQ-9" value="7" style="text;html=1;strokeColor=none;fillColor=none;align=center;verticalAlign=middle;whiteSpace=wrap;rounded=0;" parent="1" vertex="1">
          <mxGeometry x="280.5" y="380" width="40" height="20" as="geometry" />
        </mxCell>
        <mxCell id="gEyAKgTmWfJZtig9_PZQ-10" value="Gnd" style="text;html=1;strokeColor=none;fillColor=none;align=center;verticalAlign=middle;whiteSpace=wrap;rounded=0;" parent="1" vertex="1">
          <mxGeometry x="280.5" y="450" width="40" height="20" as="geometry" />
        </mxCell>
        <mxCell id="gEyAKgTmWfJZtig9_PZQ-11" value="1K&amp;nbsp;" style="text;html=1;strokeColor=none;fillColor=none;align=center;verticalAlign=middle;whiteSpace=wrap;rounded=0;" parent="1" vertex="1">
          <mxGeometry x="434.5" y="280" width="40" height="20" as="geometry" />
        </mxCell>
        <mxCell id="gEyAKgTmWfJZtig9_PZQ-12" value="470" style="text;html=1;strokeColor=none;fillColor=none;align=center;verticalAlign=middle;whiteSpace=wrap;rounded=0;" parent="1" vertex="1">
          <mxGeometry x="434.5" y="364" width="40" height="20" as="geometry" />
        </mxCell>
        <mxCell id="gEyAKgTmWfJZtig9_PZQ-13" value="RCA Composite&lt;div&gt;Video&lt;/div&gt;" style="text;html=1;strokeColor=none;fillColor=none;align=center;verticalAlign=middle;whiteSpace=wrap;rounded=0;" parent="1" vertex="1">
          <mxGeometry x="700.5" y="250" width="40" height="20" as="geometry" />
        </mxCell>
        <mxCell id="gEyAKgTmWfJZtig9_PZQ-14" value="Inner" style="text;html=1;strokeColor=none;fillColor=none;align=center;verticalAlign=middle;whiteSpace=wrap;rounded=0;" parent="1" vertex="1">
          <mxGeometry x="640" y="300" width="40" height="20" as="geometry" />
        </mxCell>
        <mxCell id="gEyAKgTmWfJZtig9_PZQ-15" value="Outer" style="text;html=1;strokeColor=none;fillColor=none;align=center;verticalAlign=middle;whiteSpace=wrap;rounded=0;" parent="1" vertex="1">
          <mxGeometry x="640" y="340" width="40" height="20" as="geometry" />
        </mxCell>
      </root>
    </mxGraphModel>
  </diagram>
</mxfile>
